<svg id="visual" viewBox="0 0 1080 1920" width="1080" height="1920" xmlns="http://www.w3.org/2000/svg" xmlns:xlink="http://www.w3.org/1999/xlink" version="1.1"><path d="M0 731L16.3 740.5C32.7 750 65.3 769 98 727.3C130.7 685.7 163.3 583.3 196.2 513C229 442.7 262 404.3 294.8 407.5C327.7 410.7 360.3 455.3 393 522.5C425.7 589.7 458.3 679.3 491 689C523.7 698.7 556.3 628.3 589 615.5C621.7 602.7 654.3 647.3 687 621.7C719.7 596 752.3 500 785.2 506.5C818 513 851 622 883.8 622C916.7 622 949.3 513 982 497C1014.7 481 1047.3 558 1063.7 596.5L1080 635L1080 0L1063.7 0C1047.3 0 1014.7 0 982 0C949.3 0 916.7 0 883.8 0C851 0 818 0 785.2 0C752.3 0 719.7 0 687 0C654.3 0 621.7 0 589 0C556.3 0 523.7 0 491 0C458.3 0 425.7 0 393 0C360.3 0 327.7 0 294.8 0C262 0 229 0 196.2 0C163.3 0 130.7 0 98 0C65.3 0 32.7 0 16.3 0L0 0Z" fill="#9fc7ff"></path><path d="M0 999L16.3 1031C32.7 1063 65.3 1127 98 1120.7C130.7 1114.3 163.3 1037.7 196.2 986.5C229 935.3 262 909.7 294.8 893.7C327.7 877.7 360.3 871.3 393 900.2C425.7 929 458.3 993 491 980.2C523.7 967.3 556.3 877.7 589 874.5C621.7 871.3 654.3 954.7 687 951.5C719.7 948.3 752.3 858.7 785.2 839.5C818 820.3 851 871.7 883.8 881.3C916.7 891 949.3 859 982 871.7C1014.7 884.3 1047.3 941.7 1063.7 970.3L1080 999L1080 633L1063.7 594.5C1047.3 556 1014.7 479 982 495C949.3 511 916.7 620 883.8 620C851 620 818 511 785.2 504.5C752.3 498 719.7 594 687 619.7C654.3 645.3 621.7 600.7 589 613.5C556.3 626.3 523.7 696.7 491 687C458.3 677.3 425.7 587.7 393 520.5C360.3 453.3 327.7 408.7 294.8 405.5C262 402.3 229 440.7 196.2 511C163.3 581.3 130.7 683.7 98 725.3C65.3 767 32.7 748 16.3 738.5L0 729Z" fill="#8abaff"></path><path d="M0 1364L16.3 1396C32.7 1428 65.3 1492 98 1530.5C130.7 1569 163.3 1582 196.2 1566C229 1550 262 1505 294.8 1489C327.7 1473 360.3 1486 393 1479.7C425.7 1473.3 458.3 1447.7 491 1418.8C523.7 1390 556.3 1358 589 1374C621.7 1390 654.3 1454 687 1492.3C719.7 1530.7 752.3 1543.3 785.2 1524.2C818 1505 851 1454 883.8 1415.7C916.7 1377.3 949.3 1351.7 982 1342C1014.7 1332.3 1047.3 1338.7 1063.7 1341.8L1080 1345L1080 997L1063.7 968.3C1047.3 939.7 1014.7 882.3 982 869.7C949.3 857 916.7 889 883.8 879.3C851 869.7 818 818.3 785.2 837.5C752.3 856.7 719.7 946.3 687 949.5C654.3 952.7 621.7 869.3 589 872.5C556.3 875.7 523.7 965.3 491 978.2C458.3 991 425.7 927 393 898.2C360.3 869.3 327.7 875.7 294.8 891.7C262 907.7 229 933.3 196.2 984.5C163.3 1035.7 130.7 1112.3 98 1118.7C65.3 1125 32.7 1061 16.3 1029L0 997Z" fill="#74acff"></path><path d="M0 1787L16.3 1777.3C32.7 1767.7 65.3 1748.3 98 1741.8C130.7 1735.3 163.3 1741.7 196.2 1735.3C229 1729 262 1710 294.8 1706.8C327.7 1703.7 360.3 1716.3 393 1725.8C425.7 1735.3 458.3 1741.7 491 1728.8C523.7 1716 556.3 1684 589 1680.8C621.7 1677.7 654.3 1703.3 687 1713C719.7 1722.7 752.3 1716.3 785.2 1697.2C818 1678 851 1646 883.8 1636.3C916.7 1626.7 949.3 1639.3 982 1658.5C1014.7 1677.7 1047.3 1703.3 1063.7 1716.2L1080 1729L1080 1343L1063.7 1339.8C1047.3 1336.7 1014.7 1330.3 982 1340C949.3 1349.7 916.7 1375.3 883.8 1413.7C851 1452 818 1503 785.2 1522.2C752.3 1541.3 719.7 1528.7 687 1490.3C654.3 1452 621.7 1388 589 1372C556.3 1356 523.7 1388 491 1416.8C458.3 1445.7 425.7 1471.3 393 1477.7C360.3 1484 327.7 1471 294.8 1487C262 1503 229 1548 196.2 1564C163.3 1580 130.7 1567 98 1528.5C65.3 1490 32.7 1426 16.3 1394L0 1362Z" fill="#639bf4"></path><path d="M0 1921L16.3 1921C32.7 1921 65.3 1921 98 1921C130.7 1921 163.3 1921 196.2 1921C229 1921 262 1921 294.8 1921C327.7 1921 360.3 1921 393 1921C425.7 1921 458.3 1921 491 1921C523.7 1921 556.3 1921 589 1921C621.7 1921 654.3 1921 687 1921C719.7 1921 752.3 1921 785.2 1921C818 1921 851 1921 883.8 1921C916.7 1921 949.3 1921 982 1921C1014.7 1921 1047.3 1921 1063.7 1921L1080 1921L1080 1727L1063.7 1714.2C1047.3 1701.3 1014.7 1675.7 982 1656.5C949.3 1637.3 916.7 1624.7 883.8 1634.3C851 1644 818 1676 785.2 1695.2C752.3 1714.3 719.7 1720.7 687 1711C654.3 1701.3 621.7 1675.7 589 1678.8C556.3 1682 523.7 1714 491 1726.8C458.3 1739.7 425.7 1733.3 393 1723.8C360.3 1714.3 327.7 1701.7 294.8 1704.8C262 1708 229 1727 196.2 1733.3C163.3 1739.7 130.7 1733.3 98 1739.8C65.3 1746.3 32.7 1765.7 16.3 1775.3L0 1785Z" fill="#538be9"></path></svg>